<svg width="32" height="32" viewBox="0 0 32 32" fill="none" xmlns="http://www.w3.org/2000/svg">
<path fill-rule="evenodd" clip-rule="evenodd" d="M15.9574 22.1155C16.9551 21.7777 18.1154 18.04 19.8703 14.2635C20.0661 13.8415 21.7008 10.2481 21.4803 9.8325C21.3536 9.59473 14.4744 10.4766 10.3704 9.52189C9.66995 9.35896 6.73112 19.6949 3.84009 22.1144C9.30956 21.3161 15.2227 22.3642 15.9574 22.1155Z" stroke="#1E1E1E" stroke-width="2" stroke-linecap="round" stroke-linejoin="round"/>
<path d="M21.6355 10.5204C22.7748 14.6158 25.6487 20.7912 28.1066 21.9796" stroke="#1E1E1E" stroke-width="2" stroke-linecap="round" stroke-linejoin="round"/>
<path d="M21.6356 10.4766C21.4655 13.4594 21.5623 19.4099 20.9486 21.3452C20.447 22.9269 17.7881 22.523 15.1282 22.2476" stroke="#1E1E1E" stroke-width="2" stroke-linecap="round" stroke-linejoin="round"/>
<path d="M21.3657 11.8247C21.4396 15.2829 23.0272 22.2161 23.3556 22.3666C23.6841 22.5172 27.5048 22.4403 28.1064 22.3666" stroke="#1E1E1E" stroke-width="2" stroke-linecap="round" stroke-linejoin="round"/>
</svg>
