<svg width="64" height="64" viewBox="0 0 64 64" fill="none" xmlns="http://www.w3.org/2000/svg">
<path d="M16.8 28.64C14.8802 20.32 16.8053 12.64 24.1602 10.4M23.2001 8.48C45.7601 4.15997 50.2399 23.2 45.7601 32.32" stroke="#1E1E1E" stroke-width="2.4" stroke-linecap="round" stroke-linejoin="round"/>
<path d="M20.6399 24C23.1785 23.1164 27.7795 21.1448 28.4799 17.92" stroke="#1E1E1E" stroke-width="2.4" stroke-linecap="round" stroke-linejoin="round"/>
<path d="M28.48 18.88C30.5407 21.4689 36.0759 23.6374 40.64 24" stroke="#1E1E1E" stroke-width="2.4" stroke-linecap="round" stroke-linejoin="round"/>
<path d="M19.7188 28.0401C18.4555 28.2309 17.9976 29.1477 17.9976 30.6026C17.9976 31.5725 18.8321 32.3739 20.501 33.0068C22.3855 48.1578 41.8847 48.1578 43.0576 31.7861C44.5964 30.6446 45.3658 29.8199 45.3658 29.3122C45.3658 28.3792 45.0858 27.7215 43.6357 27.1518" stroke="#1E1E1E" stroke-width="2.4" stroke-linecap="round" stroke-linejoin="round"/>
<path d="M22.96 26.9548C24.72 26 35.9011 25.84 36.8 25.84C49.2 24.8 32.8533 41.36 32.8533 26.9548" stroke="#1E1E1E" stroke-width="2.4" stroke-linecap="round" stroke-linejoin="round"/>
<path d="M22.303 27.6112C23.1767 35.6111 31.2727 33.5902 31.2727 25.88" stroke="#1E1E1E" stroke-width="2.4" stroke-linecap="round" stroke-linejoin="round"/>
<path d="M32.3298 37.9711C31.0165 38.1218 29.7561 37.9377 28.5625 37.6747" stroke="#1E1E1E" stroke-width="2.4" stroke-linecap="round" stroke-linejoin="round"/>
<path d="M11.8401 55.7924C17.0818 48.1989 18.8198 47.4757 24.5777 45.6991C24.1328 47.5861 24.7998 51.36 31.0271 51.36C37.2544 51.36 38.8113 47.5861 38.8113 45.6991C43.6235 44.64 51.2041 52.3279 53.6001 56.48" stroke="#1E1E1E" stroke-width="2.4" stroke-linecap="round" stroke-linejoin="round"/>
</svg>
