<svg width="32" height="32" viewBox="0 0 32 32" fill="none" xmlns="http://www.w3.org/2000/svg">
<path d="M21.9563 21.8825C18.1459 20.3688 14.6021 18.1922 11.0962 16.0636" stroke="#1E1E1E" stroke-width="2" stroke-linecap="round" stroke-linejoin="round"/>
<path d="M22.032 21.8573C16.5586 22.8114 10.9916 24.1108 5.82949 26.2716" stroke="#1E1E1E" stroke-width="2" stroke-linecap="round" stroke-linejoin="round"/>
<path d="M10.9712 15.8879C9.39843 19.3618 7.68743 22.8409 5.77928 26.0961" stroke="#1E1E1E" stroke-width="2" stroke-linecap="round" stroke-linejoin="round"/>
<path d="M24.8411 15.3362C23.5556 18.2772 22.9393 21.7402 22.0068 24.7918" stroke="#1E1E1E" stroke-width="2" stroke-linecap="round" stroke-linejoin="round"/>
<path d="M21.9814 25.2183C18.7399 24.5636 14.4314 24.2987 11.0961 24.2987" stroke="#1E1E1E" stroke-width="2" stroke-linecap="round" stroke-linejoin="round"/>
<path d="M24.8411 15.3363C23.6805 15.4371 22.4637 15.266 21.306 15.3363" stroke="#1E1E1E" stroke-width="2" stroke-linecap="round" stroke-linejoin="round"/>
<path d="M21.3062 15.3362C20.5051 16.3891 19.3006 18.1549 18.4705 19.1736" stroke="#1E1E1E" stroke-width="2" stroke-linecap="round" stroke-linejoin="round"/>
<path d="M18.9719 16.816C16.9813 13.2368 14.3832 9.31955 12.5006 5.67999" stroke="#1E1E1E" stroke-width="2" stroke-linecap="round" stroke-linejoin="round"/>
<path d="M11.1006 15.3363C11.0326 12.0213 11.7877 8.71 12.5005 5.67999" stroke="#1E1E1E" stroke-width="2" stroke-linecap="round" stroke-linejoin="round"/>
<path d="M8.86426 18.3208C7.41057 16.9548 5.74481 15.7753 4.3999 14.3079" stroke="#1E1E1E" stroke-width="2" stroke-linecap="round" stroke-linejoin="round"/>
<path d="M7.23413 21.6568C6.26435 19.1616 5.26245 16.656 4.60056 14.0822" stroke="#1E1E1E" stroke-width="2" stroke-linecap="round" stroke-linejoin="round"/>
<path d="M25.5184 15.587C26.2628 16.5699 26.9293 17.5981 27.6001 18.6218" stroke="#1E1E1E" stroke-width="2" stroke-linecap="round" stroke-linejoin="round"/>
<path d="M24.1638 18.045C25.2008 18.3219 26.2233 18.5616 27.1736 19.0232" stroke="#1E1E1E" stroke-width="2" stroke-linecap="round" stroke-linejoin="round"/>
</svg>
